<?xml version="1.0" encoding="UTF-8" standalone="no"?>
<!-- Created with Inkscape (http://www.inkscape.org/) -->

<svg
   xmlns:dc="http://purl.org/dc/elements/1.1/"
   xmlns:cc="http://creativecommons.org/ns#"
   xmlns:rdf="http://www.w3.org/1999/02/22-rdf-syntax-ns#"
   xmlns:svg="http://www.w3.org/2000/svg"
   xmlns="http://www.w3.org/2000/svg"
   xmlns:sodipodi="http://sodipodi.sourceforge.net/DTD/sodipodi-0.dtd"
   xmlns:inkscape="http://www.inkscape.org/namespaces/inkscape"
   width="506.82611"
   height="257.45898"
   id="svg4471"
   version="1.1"
   inkscape:version="0.48.1 r9760"
   sodipodi:docname="rail.svg">
  <defs
     id="defs4473" />
  <sodipodi:namedview
     id="base"
     pagecolor="#ffffff"
     bordercolor="#666666"
     borderopacity="1.0"
     inkscape:pageopacity="0.0"
     inkscape:pageshadow="2"
     inkscape:zoom="1"
     inkscape:cx="202.05791"
     inkscape:cy="105.13218"
     inkscape:document-units="px"
     inkscape:current-layer="layer1"
     showgrid="false"
     showguides="true"
     inkscape:guide-bbox="true"
     inkscape:snap-global="false"
     fit-margin-top="10"
     fit-margin-left="10"
     fit-margin-right="10"
     fit-margin-bottom="10"
     inkscape:window-width="1214"
     inkscape:window-height="1000"
     inkscape:window-x="66"
     inkscape:window-y="24"
     inkscape:window-maximized="1" />
  <metadata
     id="metadata4476">
    <rdf:RDF>
      <cc:Work
         rdf:about="">
        <dc:format>image/svg+xml</dc:format>
        <dc:type
           rdf:resource="http://purl.org/dc/dcmitype/StillImage" />
        <dc:title></dc:title>
      </cc:Work>
    </rdf:RDF>
  </metadata>
  <g
     inkscape:label="Calque 1"
     inkscape:groupmode="layer"
     id="layer1"
     transform="translate(-27.905103,-11.064332)">
    <rect
       style="fill:none;stroke:#000000;stroke-width:3;stroke-miterlimit:4;stroke-opacity:1;stroke-dasharray:none"
       id="rect4479"
       width="39.797016"
       height="183.12498"
       x="183.15317"
       y="73.898331" />
    <path
       sodipodi:type="arc"
       style="fill:#000000;stroke:none"
       id="path4989"
       sodipodi:cx="65.659912"
       sodipodi:cy="46.755322"
       sodipodi:rx="2.5253818"
       sodipodi:ry="2.5253818"
       d="m 68.185294,46.755322 c 0,1.394729 -1.130652,2.525381 -2.525382,2.525381 -1.39473,0 -2.525382,-1.130652 -2.525382,-2.525381 0,-1.39473 1.130652,-2.525382 2.525382,-2.525382 1.39473,0 2.525382,1.130652 2.525382,2.525382 z"
       transform="matrix(1.7720683,0,0,1.7746502,77.53967,-0.33676166)" />
    <path
       sodipodi:type="arc"
       style="fill:#000000;stroke:none"
       id="path4989-5"
       sodipodi:cx="65.659912"
       sodipodi:cy="46.755322"
       sodipodi:rx="2.5253818"
       sodipodi:ry="2.5253818"
       d="m 68.185294,46.755322 c 0,1.394729 -1.130652,2.525381 -2.525382,2.525381 -1.39473,0 -2.525382,-1.130652 -2.525382,-2.525381 0,-1.39473 1.130652,-2.525382 2.525382,-2.525382 1.39473,0 2.525382,1.130652 2.525382,2.525382 z"
       transform="matrix(1.7720683,0,0,1.7746502,77.53967,9.7469923)" />
    <path
       sodipodi:type="arc"
       style="fill:#000000;stroke:none"
       id="path4989-4"
       sodipodi:cx="65.659912"
       sodipodi:cy="46.755322"
       sodipodi:rx="2.5253818"
       sodipodi:ry="2.5253818"
       d="m 68.185294,46.755322 c 0,1.394729 -1.130652,2.525381 -2.525382,2.525381 -1.39473,0 -2.525382,-1.130652 -2.525382,-2.525381 0,-1.39473 1.130652,-2.525382 2.525382,-2.525382 1.39473,0 2.525382,1.130652 2.525382,2.525382 z"
       transform="matrix(1.7720683,0,0,1.7746502,77.53967,20.334935)" />
    <path
       sodipodi:type="arc"
       style="fill:#000000;stroke:none"
       id="path4989-4-4"
       sodipodi:cx="65.659912"
       sodipodi:cy="46.755322"
       sodipodi:rx="2.5253818"
       sodipodi:ry="2.5253818"
       d="m 68.185294,46.755322 c 0,1.394729 -1.130652,2.525381 -2.525382,2.525381 -1.39473,0 -2.525382,-1.130652 -2.525382,-2.525381 0,-1.39473 1.130652,-2.525382 2.525382,-2.525382 1.39473,0 2.525382,1.130652 2.525382,2.525382 z"
       transform="matrix(1.7720683,0,0,1.7746502,77.53967,51.454523)" />
    <path
       sodipodi:type="arc"
       style="fill:#000000;stroke:none"
       id="path4989-56"
       sodipodi:cx="65.659912"
       sodipodi:cy="46.755322"
       sodipodi:rx="2.5253818"
       sodipodi:ry="2.5253818"
       d="m 68.185294,46.755322 c 0,1.394729 -1.130652,2.525381 -2.525382,2.525381 -1.39473,0 -2.525382,-1.130652 -2.525382,-2.525381 0,-1.39473 1.130652,-2.525382 2.525382,-2.525382 1.39473,0 2.525382,1.130652 2.525382,2.525382 z"
       transform="matrix(1.7720683,0,0,1.7746502,77.53967,61.944428)" />
    <path
       sodipodi:type="arc"
       style="fill:#000000;stroke:none"
       id="path4989-5-0"
       sodipodi:cx="65.659912"
       sodipodi:cy="46.755322"
       sodipodi:rx="2.5253818"
       sodipodi:ry="2.5253818"
       d="m 68.185294,46.755322 c 0,1.394729 -1.130652,2.525381 -2.525382,2.525381 -1.39473,0 -2.525382,-1.130652 -2.525382,-2.525381 0,-1.39473 1.130652,-2.525382 2.525382,-2.525382 1.39473,0 2.525382,1.130652 2.525382,2.525382 z"
       transform="matrix(1.7720683,0,0,1.7746502,77.53967,72.028182)" />
    <path
       sodipodi:type="arc"
       style="fill:#000000;stroke:none"
       id="path4989-4-6"
       sodipodi:cx="65.659912"
       sodipodi:cy="46.755322"
       sodipodi:rx="2.5253818"
       sodipodi:ry="2.5253818"
       d="m 68.185294,46.755322 c 0,1.394729 -1.130652,2.525381 -2.525382,2.525381 -1.39473,0 -2.525382,-1.130652 -2.525382,-2.525381 0,-1.39473 1.130652,-2.525382 2.525382,-2.525382 1.39473,0 2.525382,1.130652 2.525382,2.525382 z"
       transform="matrix(1.7720683,0,0,1.7746502,77.53967,82.616125)" />
    <path
       sodipodi:type="arc"
       style="fill:#000000;stroke:none"
       id="path4989-9-4"
       sodipodi:cx="65.659912"
       sodipodi:cy="46.755322"
       sodipodi:rx="2.5253818"
       sodipodi:ry="2.5253818"
       d="m 68.185294,46.755322 c 0,1.394729 -1.130652,2.525381 -2.525382,2.525381 -1.39473,0 -2.525382,-1.130652 -2.525382,-2.525381 0,-1.39473 1.130652,-2.525382 2.525382,-2.525382 1.39473,0 2.525382,1.130652 2.525382,2.525382 z"
       transform="matrix(1.7720683,0,0,1.7746502,77.53967,93.064016)" />
    <path
       sodipodi:type="arc"
       style="fill:#000000;stroke:none"
       id="path4989-5-4-5"
       sodipodi:cx="65.659912"
       sodipodi:cy="46.755322"
       sodipodi:rx="2.5253818"
       sodipodi:ry="2.5253818"
       d="m 68.185294,46.755322 c 0,1.394729 -1.130652,2.525381 -2.525382,2.525381 -1.39473,0 -2.525382,-1.130652 -2.525382,-2.525381 0,-1.39473 1.130652,-2.525382 2.525382,-2.525382 1.39473,0 2.525382,1.130652 2.525382,2.525382 z"
       transform="matrix(1.7720683,0,0,1.7746502,77.53967,103.14777)" />
    <path
       sodipodi:type="arc"
       style="fill:#000000;stroke:none"
       id="path4989-4-4-7"
       sodipodi:cx="65.659912"
       sodipodi:cy="46.755322"
       sodipodi:rx="2.5253818"
       sodipodi:ry="2.5253818"
       d="m 68.185294,46.755322 c 0,1.394729 -1.130652,2.525381 -2.525382,2.525381 -1.39473,0 -2.525382,-1.130652 -2.525382,-2.525381 0,-1.39473 1.130652,-2.525382 2.525382,-2.525382 1.39473,0 2.525382,1.130652 2.525382,2.525382 z"
       transform="matrix(1.7720683,0,0,1.7746502,77.53967,113.73571)" />
    <path
       sodipodi:type="arc"
       style="fill:#000000;stroke:none"
       id="path4989-95"
       sodipodi:cx="65.659912"
       sodipodi:cy="46.755322"
       sodipodi:rx="2.5253818"
       sodipodi:ry="2.5253818"
       d="m 68.185294,46.755322 c 0,1.394729 -1.130652,2.525381 -2.525382,2.525381 -1.39473,0 -2.525382,-1.130652 -2.525382,-2.525381 0,-1.39473 1.130652,-2.525382 2.525382,-2.525382 1.39473,0 2.525382,1.130652 2.525382,2.525382 z"
       transform="matrix(1.7720683,0,0,1.7746502,94.097717,-0.33676166)" />
    <path
       sodipodi:type="arc"
       style="fill:#000000;stroke:none"
       id="path4989-4-4-9"
       sodipodi:cx="65.659912"
       sodipodi:cy="46.755322"
       sodipodi:rx="2.5253818"
       sodipodi:ry="2.5253818"
       d="m 68.185294,46.755322 c 0,1.394729 -1.130652,2.525381 -2.525382,2.525381 -1.39473,0 -2.525382,-1.130652 -2.525382,-2.525381 0,-1.39473 1.130652,-2.525382 2.525382,-2.525382 1.39473,0 2.525382,1.130652 2.525382,2.525382 z"
       transform="matrix(1.7720683,0,0,1.7746502,94.097717,51.454523)" />
    <path
       sodipodi:type="arc"
       style="fill:#000000;stroke:none"
       id="path4989-56-6"
       sodipodi:cx="65.659912"
       sodipodi:cy="46.755322"
       sodipodi:rx="2.5253818"
       sodipodi:ry="2.5253818"
       d="m 68.185294,46.755322 c 0,1.394729 -1.130652,2.525381 -2.525382,2.525381 -1.39473,0 -2.525382,-1.130652 -2.525382,-2.525381 0,-1.39473 1.130652,-2.525382 2.525382,-2.525382 1.39473,0 2.525382,1.130652 2.525382,2.525382 z"
       transform="matrix(1.7720683,0,0,1.7746502,94.097717,61.944428)" />
    <path
       sodipodi:type="arc"
       style="fill:#000000;stroke:none"
       id="path4989-5-0-1"
       sodipodi:cx="65.659912"
       sodipodi:cy="46.755322"
       sodipodi:rx="2.5253818"
       sodipodi:ry="2.5253818"
       d="m 68.185294,46.755322 c 0,1.394729 -1.130652,2.525381 -2.525382,2.525381 -1.39473,0 -2.525382,-1.130652 -2.525382,-2.525381 0,-1.39473 1.130652,-2.525382 2.525382,-2.525382 1.39473,0 2.525382,1.130652 2.525382,2.525382 z"
       transform="matrix(1.7720683,0,0,1.7746502,94.097717,72.028182)" />
    <path
       sodipodi:type="arc"
       style="fill:#000000;stroke:none"
       id="path4989-4-6-1"
       sodipodi:cx="65.659912"
       sodipodi:cy="46.755322"
       sodipodi:rx="2.5253818"
       sodipodi:ry="2.5253818"
       d="m 68.185294,46.755322 c 0,1.394729 -1.130652,2.525381 -2.525382,2.525381 -1.39473,0 -2.525382,-1.130652 -2.525382,-2.525381 0,-1.39473 1.130652,-2.525382 2.525382,-2.525382 1.39473,0 2.525382,1.130652 2.525382,2.525382 z"
       transform="matrix(1.7720683,0,0,1.7746502,94.097717,82.616125)" />
    <path
       sodipodi:type="arc"
       style="fill:#000000;stroke:none"
       id="path4989-9-4-7"
       sodipodi:cx="65.659912"
       sodipodi:cy="46.755322"
       sodipodi:rx="2.5253818"
       sodipodi:ry="2.5253818"
       d="m 68.185294,46.755322 c 0,1.394729 -1.130652,2.525381 -2.525382,2.525381 -1.39473,0 -2.525382,-1.130652 -2.525382,-2.525381 0,-1.39473 1.130652,-2.525382 2.525382,-2.525382 1.39473,0 2.525382,1.130652 2.525382,2.525382 z"
       transform="matrix(1.7720683,0,0,1.7746502,94.097717,93.064023)" />
    <path
       sodipodi:type="arc"
       style="fill:#000000;stroke:none"
       id="path4989-5-4-5-8"
       sodipodi:cx="65.659912"
       sodipodi:cy="46.755322"
       sodipodi:rx="2.5253818"
       sodipodi:ry="2.5253818"
       d="m 68.185294,46.755322 c 0,1.394729 -1.130652,2.525381 -2.525382,2.525381 -1.39473,0 -2.525382,-1.130652 -2.525382,-2.525381 0,-1.39473 1.130652,-2.525382 2.525382,-2.525382 1.39473,0 2.525382,1.130652 2.525382,2.525382 z"
       transform="matrix(1.7720683,0,0,1.7746502,94.097717,103.14776)" />
    <path
       sodipodi:type="arc"
       style="fill:#000000;stroke:none"
       id="path4989-4-4-7-0"
       sodipodi:cx="65.659912"
       sodipodi:cy="46.755322"
       sodipodi:rx="2.5253818"
       sodipodi:ry="2.5253818"
       d="m 68.185294,46.755322 c 0,1.394729 -1.130652,2.525381 -2.525382,2.525381 -1.39473,0 -2.525382,-1.130652 -2.525382,-2.525381 0,-1.39473 1.130652,-2.525382 2.525382,-2.525382 1.39473,0 2.525382,1.130652 2.525382,2.525382 z"
       transform="matrix(1.7720683,0,0,1.7746502,94.097717,113.73572)" />
    <path
       style="fill:none;stroke:#000000;stroke-width:1;stroke-linecap:butt;stroke-linejoin:miter;stroke-miterlimit:4;stroke-opacity:1;stroke-dasharray:none"
       d="m 210.45157,82.63758 0,114.50664"
       id="path5181"
       inkscape:connector-curvature="0"
       sodipodi:nodetypes="cc" />
    <rect
       style="fill:none;stroke:#000000;stroke-width:1;stroke-miterlimit:4;stroke-dasharray:none"
       id="rect5183"
       width="5.4819894"
       height="16.58213"
       x="207.76648"
       y="93.39357" />
    <path
       style="fill:none;stroke:#000000;stroke-width:1;stroke-linecap:butt;stroke-linejoin:miter;stroke-miterlimit:4;stroke-opacity:1;stroke-dasharray:none"
       d="m 193.89352,82.63758 0,114.95479"
       id="path5185"
       inkscape:connector-curvature="0" />
    <path
       style="fill:none;stroke:#000000;stroke-width:1;stroke-linecap:butt;stroke-linejoin:miter;stroke-miterlimit:4;stroke-opacity:1;stroke-dasharray:none"
       d="m 193.89352,117.37051 5.81768,0"
       id="path5187"
       inkscape:connector-curvature="0" />
    <path
       style="fill:none;stroke:#000000;stroke-width:1;stroke-linecap:butt;stroke-linejoin:miter;stroke-miterlimit:4;stroke-opacity:1;stroke-dasharray:none"
       d="m 210.45157,117.37051 -6.60085,0"
       id="path5189"
       inkscape:connector-curvature="0" />
    <path
       style="fill:none;stroke:#000000;stroke-width:1;stroke-linecap:butt;stroke-linejoin:miter;stroke-miterlimit:4;stroke-opacity:1;stroke-dasharray:none"
       d="m 200.04685,110.31188 0,13.44501"
       id="path5191"
       inkscape:connector-curvature="0"
       sodipodi:nodetypes="cc" />
    <path
       style="fill:none;stroke:#000000;stroke-width:1;stroke-linecap:butt;stroke-linejoin:miter;stroke-miterlimit:4;stroke-opacity:1;stroke-dasharray:none"
       d="m 203.73885,110.19984 0,13.66909"
       id="path5193"
       inkscape:connector-curvature="0"
       sodipodi:nodetypes="cc" />
    <text
       xml:space="preserve"
       style="font-size:17.73358727px;font-style:normal;font-variant:normal;font-weight:normal;font-stretch:normal;text-indent:0;text-align:center;text-decoration:none;line-height:125%;letter-spacing:0px;word-spacing:0px;text-transform:none;direction:ltr;block-progression:tb;writing-mode:lr-tb;text-anchor:middle;baseline-shift:baseline;color:#000000;fill:#000000;fill-opacity:1;fill-rule:nonzero;stroke:none;stroke-width:1px;marker:none;visibility:visible;display:inline;overflow:visible;enable-background:accumulate;font-family:Sans;-inkscape-font-specification:Sans"
       x="242.17758"
       y="125.12231"
       id="text5195"
       sodipodi:linespacing="125%"
       transform="scale(0.99927228,1.0007282)"><tspan
         sodipodi:role="line"
         id="tspan5197"
         x="242.17758"
         y="125.12231">1μ</tspan></text>
    <text
       xml:space="preserve"
       style="font-size:17.73358727px;font-style:normal;font-variant:normal;font-weight:normal;font-stretch:normal;text-indent:0;text-align:center;text-decoration:none;line-height:125%;letter-spacing:0px;word-spacing:0px;text-transform:none;direction:ltr;block-progression:tb;writing-mode:lr-tb;text-anchor:middle;baseline-shift:baseline;color:#000000;fill:#000000;fill-opacity:1;fill-rule:nonzero;stroke:none;stroke-width:1px;marker:none;visibility:visible;display:inline;overflow:visible;enable-background:accumulate;font-family:Sans;-inkscape-font-specification:Sans"
       x="307.67429"
       y="108.88809"
       id="text5199"
       sodipodi:linespacing="125%"
       transform="scale(0.99927228,1.0007282)"><tspan
         sodipodi:role="line"
         id="tspan5201"
         x="307.67429"
         y="108.88809">maintient : 0.35A</tspan></text>
    <path
       style="fill:none;stroke:#ff0000;stroke-width:0.99999994px;stroke-linecap:butt;stroke-linejoin:miter;stroke-opacity:1"
       d="m 210.45157,82.63758 0,-50.194687"
       id="path5203"
       inkscape:connector-curvature="0" />
    <path
       style="fill:none;stroke:#000000;stroke-width:0.99999994px;stroke-linecap:butt;stroke-linejoin:miter;stroke-opacity:1"
       d="m 193.89352,82.63758 0,-48.850186"
       id="path5205"
       inkscape:connector-curvature="0" />
    <text
       xml:space="preserve"
       style="font-size:17.73358727px;font-style:normal;font-variant:normal;font-weight:normal;font-stretch:normal;text-indent:0;text-align:center;text-decoration:none;line-height:125%;letter-spacing:0px;word-spacing:0px;text-transform:none;direction:ltr;block-progression:tb;writing-mode:lr-tb;text-anchor:middle;baseline-shift:baseline;color:#000000;fill:#000000;fill-opacity:1;fill-rule:nonzero;stroke:none;stroke-width:1px;marker:none;visibility:visible;display:inline;overflow:visible;enable-background:accumulate;font-family:Sans;-inkscape-font-specification:Sans"
       x="250.0148"
       y="35.554169"
       id="text5207"
       sodipodi:linespacing="125%"
       transform="scale(0.99927228,1.0007282)"><tspan
         sodipodi:role="line"
         id="tspan5209"
         x="250.0148"
         y="35.554169">FIO 3.3V</tspan></text>
    <text
       xml:space="preserve"
       style="font-size:17.73358727px;font-style:normal;font-variant:normal;font-weight:normal;font-stretch:normal;text-indent:0;text-align:center;text-decoration:none;line-height:125%;letter-spacing:0px;word-spacing:0px;text-transform:none;direction:ltr;block-progression:tb;writing-mode:lr-tb;text-anchor:middle;baseline-shift:baseline;color:#000000;fill:#000000;fill-opacity:1;fill-rule:nonzero;stroke:none;stroke-width:1px;marker:none;visibility:visible;display:inline;overflow:visible;enable-background:accumulate;font-family:Sans;-inkscape-font-specification:Sans"
       x="155.07257"
       y="34.210651"
       id="text5211"
       sodipodi:linespacing="125%"
       transform="scale(0.99927228,1.0007282)"><tspan
         sodipodi:role="line"
         id="tspan5213"
         x="155.07257"
         y="34.210651">FIO GND</tspan></text>
    <path
       style="fill:none;stroke:#000000;stroke-width:0.99999994px;stroke-linecap:butt;stroke-linejoin:miter;stroke-opacity:1"
       d="m 231.03724,128.79877 8.05528,0 0,108.90454 -6.26521,0"
       id="path5215"
       inkscape:connector-curvature="0"
       sodipodi:nodetypes="cccc" />
    <text
       xml:space="preserve"
       style="font-size:17.73358727px;font-style:normal;font-variant:normal;font-weight:normal;font-stretch:normal;text-indent:0;text-align:start;text-decoration:none;line-height:125%;letter-spacing:0px;word-spacing:0px;text-transform:none;direction:ltr;block-progression:tb;writing-mode:lr-tb;text-anchor:start;baseline-shift:baseline;color:#000000;fill:#000000;fill-opacity:1;fill-rule:nonzero;stroke:none;stroke-width:1px;marker:none;visibility:visible;display:inline;overflow:visible;enable-background:accumulate;font-family:Sans;-inkscape-font-specification:Sans"
       x="247.342"
       y="164.98015"
       id="text5217"
       sodipodi:linespacing="125%"
       transform="scale(0.99927228,1.0007282)"><tspan
         sodipodi:role="line"
         id="tspan5219"
         x="247.342"
         y="164.98015">Alimentation capteurs : 11 pins</tspan></text>
    <path
       style="fill:none;stroke:#000000;stroke-width:0.99999994px;stroke-linecap:butt;stroke-linejoin:miter;stroke-opacity:1"
       d="m 173.92396,74.10421 -12.65764,0 0,168.59178 15.82204,0"
       id="path5221"
       inkscape:connector-curvature="0" />
    <text
       xml:space="preserve"
       style="font-size:17.73358727px;font-style:normal;font-variant:normal;font-weight:normal;font-stretch:normal;text-indent:0;text-align:center;text-decoration:none;line-height:125%;letter-spacing:0px;word-spacing:0px;text-transform:none;direction:ltr;block-progression:tb;writing-mode:lr-tb;text-anchor:middle;baseline-shift:baseline;color:#000000;fill:#000000;fill-opacity:1;fill-rule:nonzero;stroke:none;stroke-width:1px;marker:none;visibility:visible;display:inline;overflow:visible;enable-background:accumulate;font-family:Sans;-inkscape-font-specification:Sans"
       x="90.449409"
       y="161.45154"
       id="text5223"
       sodipodi:linespacing="125%"
       transform="scale(0.99927228,1.0007282)"><tspan
         sodipodi:role="line"
         id="tspan5225"
         x="90.449409"
         y="161.45154">16 pins mini</tspan></text>
  </g>
</svg>
